<?xml version="1.0" encoding="us-ascii" standalone="no"?><svg xmlns="http://www.w3.org/2000/svg" xmlns:xlink="http://www.w3.org/1999/xlink" contentStyleType="text/css" height="329px" preserveAspectRatio="none" style="width:619px;height:329px;background:#FFFFFF;" version="1.1" viewBox="0 0 619 329" width="619px" zoomAndPan="magnify"><defs/><g><line style="stroke:#181818;stroke-width:0.5;stroke-dasharray:5.0,5.0;" x1="23" x2="23" y1="81.4883" y2="248.041"/><line style="stroke:#181818;stroke-width:0.5;stroke-dasharray:5.0,5.0;" x1="152.5" x2="152.5" y1="81.4883" y2="248.041"/><line style="stroke:#181818;stroke-width:0.5;stroke-dasharray:5.0,5.0;" x1="404.5" x2="404.5" y1="81.4883" y2="248.041"/><line style="stroke:#181818;stroke-width:0.5;stroke-dasharray:5.0,5.0;" x1="583" x2="583" y1="81.4883" y2="248.041"/><text fill="#000000" font-family="sans-serif" font-size="14" lengthAdjust="spacing" textLength="31" x="5" y="78.5352">User</text><ellipse cx="23.5" cy="13.5" fill="#E2E2F0" rx="8" ry="8" style="stroke:#181818;stroke-width:0.5;"/><path d="M23.5,21.5 L23.5,48.5 M10.5,29.5 L36.5,29.5 M23.5,48.5 L10.5,63.5 M23.5,48.5 L36.5,63.5 " fill="none" style="stroke:#181818;stroke-width:0.5;"/><text fill="#000000" font-family="sans-serif" font-size="14" lengthAdjust="spacing" textLength="31" x="5" y="260.5762">User</text><ellipse cx="23.5" cy="272.0293" fill="#E2E2F0" rx="8" ry="8" style="stroke:#181818;stroke-width:0.5;"/><path d="M23.5,280.0293 L23.5,307.0293 M10.5,288.0293 L36.5,288.0293 M23.5,307.0293 L10.5,322.0293 M23.5,307.0293 L36.5,322.0293 " fill="none" style="stroke:#181818;stroke-width:0.5;"/><text fill="#000000" font-family="sans-serif" font-size="14" lengthAdjust="spacing" textLength="84" x="107.5" y="78.5352">WebBrowser</text><path d="M132,37 L132,61 M132,49 L149,49 " fill="none" style="stroke:#181818;stroke-width:0.5;"/><ellipse cx="161" cy="49" fill="#E2E2F0" rx="12" ry="12" style="stroke:#181818;stroke-width:0.5;"/><text fill="#000000" font-family="sans-serif" font-size="14" lengthAdjust="spacing" textLength="84" x="107.5" y="260.5762">WebBrowser</text><path d="M132,267.5293 L132,291.5293 M132,279.5293 L149,279.5293 " fill="none" style="stroke:#181818;stroke-width:0.5;"/><ellipse cx="161" cy="279.5293" fill="#E2E2F0" rx="12" ry="12" style="stroke:#181818;stroke-width:0.5;"/><text fill="#000000" font-family="sans-serif" font-size="14" lengthAdjust="spacing" textLength="72" x="365.5" y="78.5352">WebServer</text><ellipse cx="404.5" cy="49" fill="#E2E2F0" rx="12" ry="12" style="stroke:#181818;stroke-width:0.5;"/><polygon fill="#181818" points="400.5,37,406.5,32,404.5,37,406.5,42,400.5,37" style="stroke:#181818;stroke-width:1.0;"/><text fill="#000000" font-family="sans-serif" font-size="14" lengthAdjust="spacing" textLength="72" x="365.5" y="260.5762">WebServer</text><ellipse cx="404.5" cy="279.5293" fill="#E2E2F0" rx="12" ry="12" style="stroke:#181818;stroke-width:0.5;"/><polygon fill="#181818" points="400.5,267.5293,406.5,262.5293,404.5,267.5293,406.5,272.5293,400.5,267.5293" style="stroke:#181818;stroke-width:1.0;"/><text fill="#000000" font-family="sans-serif" font-size="14" lengthAdjust="spacing" textLength="63" x="549" y="78.5352">Database</text><path d="M565.5,29 C565.5,19 583.5,19 583.5,19 C583.5,19 601.5,19 601.5,29 L601.5,55 C601.5,65 583.5,65 583.5,65 C583.5,65 565.5,65 565.5,55 L565.5,29 " fill="#E2E2F0" style="stroke:#181818;stroke-width:1.5;"/><path d="M565.5,29 C565.5,39 583.5,39 583.5,39 C583.5,39 601.5,39 601.5,29 " fill="none" style="stroke:#181818;stroke-width:1.5;"/><text fill="#000000" font-family="sans-serif" font-size="14" lengthAdjust="spacing" textLength="63" x="549" y="260.5762">Database</text><path d="M565.5,273.5293 C565.5,263.5293 583.5,263.5293 583.5,263.5293 C583.5,263.5293 601.5,263.5293 601.5,273.5293 L601.5,299.5293 C601.5,309.5293 583.5,309.5293 583.5,309.5293 C583.5,309.5293 565.5,309.5293 565.5,299.5293 L565.5,273.5293 " fill="#E2E2F0" style="stroke:#181818;stroke-width:1.5;"/><path d="M565.5,273.5293 C565.5,283.5293 583.5,283.5293 583.5,283.5293 C583.5,283.5293 601.5,283.5293 601.5,273.5293 " fill="none" style="stroke:#181818;stroke-width:1.5;"/><polygon fill="#181818" points="140.5,108.7988,150.5,112.7988,140.5,116.7988,144.5,112.7988" style="stroke:#181818;stroke-width:1.0;"/><line style="stroke:#181818;stroke-width:1.0;" x1="23.5" x2="146.5" y1="112.7988" y2="112.7988"/><text fill="#000000" font-family="sans-serif" font-size="13" lengthAdjust="spacing" textLength="105" x="30.5" y="108.0566">Open Login Page</text><polygon fill="#181818" points="392.5,138.1094,402.5,142.1094,392.5,146.1094,396.5,142.1094" style="stroke:#181818;stroke-width:1.0;"/><line style="stroke:#181818;stroke-width:1.0;" x1="152.5" x2="398.5" y1="142.1094" y2="142.1094"/><text fill="#000000" font-family="sans-serif" font-size="13" lengthAdjust="spacing" textLength="119" x="159.5" y="137.3672">Submit Login Form</text><polygon fill="#181818" points="571.5,167.4199,581.5,171.4199,571.5,175.4199,575.5,171.4199" style="stroke:#181818;stroke-width:1.0;"/><line style="stroke:#181818;stroke-width:1.0;" x1="404.5" x2="577.5" y1="171.4199" y2="171.4199"/><text fill="#000000" font-family="sans-serif" font-size="13" lengthAdjust="spacing" textLength="125" x="411.5" y="166.6777">Validate Credentials</text><polygon fill="#181818" points="415.5,196.7305,405.5,200.7305,415.5,204.7305,411.5,200.7305" style="stroke:#181818;stroke-width:1.0;"/><line style="stroke:#181818;stroke-width:1.0;stroke-dasharray:2.0,2.0;" x1="409.5" x2="582.5" y1="200.7305" y2="200.7305"/><text fill="#000000" font-family="sans-serif" font-size="13" lengthAdjust="spacing" textLength="155" x="421.5" y="195.9883">Credentials Valid/Invalid</text><polygon fill="#181818" points="163.5,226.041,153.5,230.041,163.5,234.041,159.5,230.041" style="stroke:#181818;stroke-width:1.0;"/><line style="stroke:#181818;stroke-width:1.0;" x1="157.5" x2="403.5" y1="230.041" y2="230.041"/><text fill="#000000" font-family="sans-serif" font-size="13" lengthAdjust="spacing" textLength="228" x="169.5" y="225.2988">Display Dashboard or Error Message</text><!--SRC=[NP312i8m44Jl-OhzWUBTWmUjWg0e5FMyQPOQQ9EoIIlzUpUqQkib2JDlTf9W6Jt3BH0hxJjda0TuaDwoVoMjz2wohvDK4FUY68oeCH3aqq6fb8PiCyl16YujEJZvoZguOaLgPexeE4_8ejEDZHDxyDoedolefqV8EzPM-WbsJ8PSj5W7zVMplxapQ4okZgvF-tB-ujQv3MsDWvI6f_R81kHtzioodYa4USWR]--></g></svg>