<?xml version="1.0" encoding="us-ascii" standalone="no"?><svg xmlns="http://www.w3.org/2000/svg" xmlns:xlink="http://www.w3.org/1999/xlink" contentStyleType="text/css" height="592px" preserveAspectRatio="none" style="width:954px;height:592px;background:#FFFFFF;" version="1.1" viewBox="0 0 954 592" width="954px" zoomAndPan="magnify"><defs/><g><line style="stroke:#181818;stroke-width:0.5;stroke-dasharray:5.0,5.0;" x1="30" x2="30" y1="81.4883" y2="511.8359"/><line style="stroke:#181818;stroke-width:0.5;stroke-dasharray:5.0,5.0;" x1="257" x2="257" y1="81.4883" y2="511.8359"/><line style="stroke:#181818;stroke-width:0.5;stroke-dasharray:5.0,5.0;" x1="579.5" x2="579.5" y1="81.4883" y2="511.8359"/><line style="stroke:#181818;stroke-width:0.5;stroke-dasharray:5.0,5.0;" x1="724.5" x2="724.5" y1="81.4883" y2="511.8359"/><line style="stroke:#181818;stroke-width:0.5;stroke-dasharray:5.0,5.0;" x1="883.5" x2="883.5" y1="81.4883" y2="511.8359"/><text fill="#000000" font-family="sans-serif" font-size="14" lengthAdjust="spacing" textLength="45" x="5" y="78.5352">Joueur</text><ellipse cx="30.5" cy="13.5" fill="#E2E2F0" rx="8" ry="8" style="stroke:#181818;stroke-width:0.5;"/><path d="M30.5,21.5 L30.5,48.5 M17.5,29.5 L43.5,29.5 M30.5,48.5 L17.5,63.5 M30.5,48.5 L43.5,63.5 " fill="none" style="stroke:#181818;stroke-width:0.5;"/><text fill="#000000" font-family="sans-serif" font-size="14" lengthAdjust="spacing" textLength="45" x="5" y="524.3711">Joueur</text><ellipse cx="30.5" cy="535.8242" fill="#E2E2F0" rx="8" ry="8" style="stroke:#181818;stroke-width:0.5;"/><path d="M30.5,543.8242 L30.5,570.8242 M17.5,551.8242 L43.5,551.8242 M30.5,570.8242 L17.5,585.8242 M30.5,570.8242 L43.5,585.8242 " fill="none" style="stroke:#181818;stroke-width:0.5;"/><rect fill="#E2E2F0" height="30.4883" rx="2.5" ry="2.5" style="stroke:#181818;stroke-width:0.5;" width="79" x="218" y="50"/><text fill="#000000" font-family="sans-serif" font-size="14" lengthAdjust="spacing" textLength="65" x="225" y="70.5352">Client Jeu</text><rect fill="#E2E2F0" height="30.4883" rx="2.5" ry="2.5" style="stroke:#181818;stroke-width:0.5;" width="79" x="218" y="510.8359"/><text fill="#000000" font-family="sans-serif" font-size="14" lengthAdjust="spacing" textLength="65" x="225" y="531.3711">Client Jeu</text><rect fill="#E2E2F0" height="30.4883" rx="2.5" ry="2.5" style="stroke:#181818;stroke-width:0.5;" width="180" x="489.5" y="50"/><text fill="#000000" font-family="sans-serif" font-size="14" lengthAdjust="spacing" textLength="166" x="496.5" y="70.5352">Serveur Authentification</text><rect fill="#E2E2F0" height="30.4883" rx="2.5" ry="2.5" style="stroke:#181818;stroke-width:0.5;" width="180" x="489.5" y="510.8359"/><text fill="#000000" font-family="sans-serif" font-size="14" lengthAdjust="spacing" textLength="166" x="496.5" y="531.3711">Serveur Authentification</text><rect fill="#E2E2F0" height="30.4883" rx="2.5" ry="2.5" style="stroke:#181818;stroke-width:0.5;" width="91" x="679.5" y="50"/><text fill="#000000" font-family="sans-serif" font-size="14" lengthAdjust="spacing" textLength="77" x="686.5" y="70.5352">Serveur Jeu</text><rect fill="#E2E2F0" height="30.4883" rx="2.5" ry="2.5" style="stroke:#181818;stroke-width:0.5;" width="91" x="679.5" y="510.8359"/><text fill="#000000" font-family="sans-serif" font-size="14" lengthAdjust="spacing" textLength="77" x="686.5" y="531.3711">Serveur Jeu</text><rect fill="#E2E2F0" height="30.4883" rx="2.5" ry="2.5" style="stroke:#181818;stroke-width:0.5;" width="129" x="819.5" y="50"/><text fill="#000000" font-family="sans-serif" font-size="14" lengthAdjust="spacing" textLength="115" x="826.5" y="70.5352">Base de donn&#233;es</text><rect fill="#E2E2F0" height="30.4883" rx="2.5" ry="2.5" style="stroke:#181818;stroke-width:0.5;" width="129" x="819.5" y="510.8359"/><text fill="#000000" font-family="sans-serif" font-size="14" lengthAdjust="spacing" textLength="115" x="826.5" y="531.3711">Base de donn&#233;es</text><polygon fill="#181818" points="245.5,108.7988,255.5,112.7988,245.5,116.7988,249.5,112.7988" style="stroke:#181818;stroke-width:1.0;"/><line style="stroke:#181818;stroke-width:1.0;" x1="30.5" x2="251.5" y1="112.7988" y2="112.7988"/><text fill="#000000" font-family="sans-serif" font-size="13" lengthAdjust="spacing" textLength="79" x="37.5" y="108.0566">Lancer le jeu</text><polygon fill="#181818" points="567.5,138.1094,577.5,142.1094,567.5,146.1094,571.5,142.1094" style="stroke:#181818;stroke-width:1.0;"/><line style="stroke:#181818;stroke-width:1.0;" x1="257.5" x2="573.5" y1="142.1094" y2="142.1094"/><text fill="#000000" font-family="sans-serif" font-size="13" lengthAdjust="spacing" textLength="298" x="264.5" y="137.3672">Demande de connexion (pseudo, mot de passe)</text><polygon fill="#181818" points="872,167.4199,882,171.4199,872,175.4199,876,171.4199" style="stroke:#181818;stroke-width:1.0;"/><line style="stroke:#181818;stroke-width:1.0;" x1="579.5" x2="878" y1="171.4199" y2="171.4199"/><text fill="#000000" font-family="sans-serif" font-size="13" lengthAdjust="spacing" textLength="121" x="586.5" y="166.6777">V&#233;rifier identifiants</text><polygon fill="#181818" points="590.5,196.7305,580.5,200.7305,590.5,204.7305,586.5,200.7305" style="stroke:#181818;stroke-width:1.0;"/><line style="stroke:#181818;stroke-width:1.0;stroke-dasharray:2.0,2.0;" x1="584.5" x2="883" y1="200.7305" y2="200.7305"/><text fill="#000000" font-family="sans-serif" font-size="13" lengthAdjust="spacing" textLength="100" x="596.5" y="195.9883">R&#233;sultat (valide)</text><polygon fill="#181818" points="268.5,226.041,258.5,230.041,268.5,234.041,264.5,230.041" style="stroke:#181818;stroke-width:1.0;"/><line style="stroke:#181818;stroke-width:1.0;stroke-dasharray:2.0,2.0;" x1="262.5" x2="578.5" y1="230.041" y2="230.041"/><text fill="#000000" font-family="sans-serif" font-size="13" lengthAdjust="spacing" textLength="127" x="274.5" y="225.2988">Connexion accept&#233;e</text><polygon fill="#181818" points="245.5,255.3516,255.5,259.3516,245.5,263.3516,249.5,259.3516" style="stroke:#181818;stroke-width:1.0;"/><line style="stroke:#181818;stroke-width:1.0;" x1="30.5" x2="251.5" y1="259.3516" y2="259.3516"/><text fill="#000000" font-family="sans-serif" font-size="13" lengthAdjust="spacing" textLength="203" x="37.5" y="254.6094">Rejoindre une partie multijoueur</text><polygon fill="#181818" points="713,284.6621,723,288.6621,713,292.6621,717,288.6621" style="stroke:#181818;stroke-width:1.0;"/><line style="stroke:#181818;stroke-width:1.0;" x1="257.5" x2="719" y1="288.6621" y2="288.6621"/><text fill="#000000" font-family="sans-serif" font-size="13" lengthAdjust="spacing" textLength="121" x="264.5" y="283.9199">Requ&#234;te de session</text><polygon fill="#181818" points="872,313.9727,882,317.9727,872,321.9727,876,317.9727" style="stroke:#181818;stroke-width:1.0;"/><line style="stroke:#181818;stroke-width:1.0;" x1="725" x2="878" y1="317.9727" y2="317.9727"/><text fill="#000000" font-family="sans-serif" font-size="13" lengthAdjust="spacing" textLength="135" x="732" y="313.2305">V&#233;rifier disponibilit&#233;s</text><polygon fill="#181818" points="736,343.2832,726,347.2832,736,351.2832,732,347.2832" style="stroke:#181818;stroke-width:1.0;"/><line style="stroke:#181818;stroke-width:1.0;stroke-dasharray:2.0,2.0;" x1="730" x2="883" y1="347.2832" y2="347.2832"/><text fill="#000000" font-family="sans-serif" font-size="13" lengthAdjust="spacing" textLength="72" x="742" y="342.541">Infos partie</text><polygon fill="#181818" points="268.5,372.5938,258.5,376.5938,268.5,380.5938,264.5,376.5938" style="stroke:#181818;stroke-width:1.0;"/><line style="stroke:#181818;stroke-width:1.0;stroke-dasharray:2.0,2.0;" x1="262.5" x2="724" y1="376.5938" y2="376.5938"/><text fill="#000000" font-family="sans-serif" font-size="13" lengthAdjust="spacing" textLength="130" x="274.5" y="371.8516">D&#233;tails de la session</text><polygon fill="#181818" points="41.5,401.9043,31.5,405.9043,41.5,409.9043,37.5,405.9043" style="stroke:#181818;stroke-width:1.0;"/><line style="stroke:#181818;stroke-width:1.0;stroke-dasharray:2.0,2.0;" x1="35.5" x2="256.5" y1="405.9043" y2="405.9043"/><text fill="#000000" font-family="sans-serif" font-size="13" lengthAdjust="spacing" textLength="165" x="47.5" y="401.1621">Partie pr&#234;te, chargement...</text><polygon fill="#181818" points="245.5,431.2148,255.5,435.2148,245.5,439.2148,249.5,435.2148" style="stroke:#181818;stroke-width:1.0;"/><line style="stroke:#181818;stroke-width:1.0;" x1="30.5" x2="251.5" y1="435.2148" y2="435.2148"/><text fill="#000000" font-family="sans-serif" font-size="13" lengthAdjust="spacing" textLength="32" x="37.5" y="430.4727">Jouer</text><polygon fill="#181818" points="713,460.5254,723,464.5254,713,468.5254,717,464.5254" style="stroke:#181818;stroke-width:1.0;"/><line style="stroke:#181818;stroke-width:1.0;" x1="257.5" x2="719" y1="464.5254" y2="464.5254"/><text fill="#000000" font-family="sans-serif" font-size="13" lengthAdjust="spacing" textLength="190" x="264.5" y="459.7832">Synchronisation en temps r&#233;el</text><polygon fill="#181818" points="268.5,489.8359,258.5,493.8359,268.5,497.8359,264.5,493.8359" style="stroke:#181818;stroke-width:1.0;"/><line style="stroke:#181818;stroke-width:1.0;stroke-dasharray:2.0,2.0;" x1="262.5" x2="724" y1="493.8359" y2="493.8359"/><text fill="#000000" font-family="sans-serif" font-size="13" lengthAdjust="spacing" textLength="134" x="274.5" y="489.0938">&#201;tat du jeu mis &#224; jour</text><!--SRC=[RL9BJiCm4Dtd52DMHMfxW2wGQBEXOe5QYRsnfzILOnkFNS4Hk0NRS8rSZ74-JIiYHOeyy-PznXOokW1Rbp25meiGjTHUs0Xt6wEH_rjCTo08kkCjP8_Xp7FmcEAHc_gWfOZQsNOW5wVX0sL_lWMj1I4e_forJOtK8ijrKNGUOV7GMu4LF0ihCO11E64g-Z83iZItIwo4LIsRP3RyP6imyuH9kJbKBkQE5qHuNxGZF5gkUV2rgGE7OMgjkbniZGhkBKRsNLDJCb54c9s5OU10SkrmSz4LKgAFd6WooGvFJbiL49BDddWX21NJwrDtDMEuOOjvw2Crlx4DI4Z4CiNG_Hz5QVBEwZTjDDkuf1dfdkp1KQyzyboxB9iw2cqe2nfnqHoyCRIFjeANBe8FsU0Sv564TwmOjbmk9pUGIzCnzrzM7WDRf_Pn0Lg8M7c2mDiqqqwRxtmnAkM70PKcQ7w0Dnd-0000]--></g></svg>